<svg data-v-fde0c5aa="" xmlns="http://www.w3.org/2000/svg" viewBox="0 0 300 300" class="iconLeft"><defs data-v-fde0c5aa=""></defs><rect data-v-fde0c5aa="" fill="transparent" x="0" y="0" width="300px" height="300px" class="logo-background-square"></rect><defs data-v-fde0c5aa=""></defs><g data-v-fde0c5aa="" id="eef1dbb2-4fb5-4e24-8929-756caa2508ad" fill="#3498db" transform="matrix(3.6501498222351074,0,0,3.6501498222351074,111.76741260844902,125.72650359659748)"><path d="M0.70 10.23L0.70 10.23L0.70 3.07Q0.70 2.08 1.22 1.57Q1.74 1.05 2.73 1.05L2.73 1.05L4.30 1.05Q5.28 1.05 5.80 1.57Q6.32 2.08 6.32 3.07L6.32 3.07L6.32 4.58Q6.32 4.80 6.09 4.80L6.09 4.80L4.69 4.80Q4.46 4.80 4.46 4.58L4.46 4.58L4.46 3.46Q4.46 2.90 3.90 2.90L3.90 2.90L3.18 2.90Q2.62 2.90 2.62 3.46L2.62 3.46L2.62 9.84Q2.62 10.40 3.18 10.40L3.18 10.40L3.90 10.40Q4.46 10.40 4.46 9.84L4.46 9.84L4.46 8.72Q4.46 8.50 4.69 8.50L4.69 8.50L6.09 8.50Q6.19 8.50 6.25 8.56Q6.32 8.62 6.32 8.72L6.32 8.72L6.32 10.23Q6.32 11.22 5.80 11.73Q5.28 12.25 4.30 12.25L4.30 12.25L2.73 12.25Q1.74 12.25 1.22 11.74Q0.70 11.22 0.70 10.23ZM7.71 10.23L7.71 10.23L7.71 2.73Q7.71 2.61 7.79 2.53Q7.88 2.45 7.99 2.45L7.99 2.45L9.34 2.45Q9.45 2.45 9.54 2.53Q9.62 2.61 9.62 2.73L9.62 2.73L9.62 9.84Q9.62 10.40 10.18 10.40L10.18 10.40L10.90 10.40Q11.46 10.40 11.46 9.84L11.46 9.84L11.46 2.73Q11.46 2.61 11.55 2.53Q11.63 2.45 11.74 2.45L11.74 2.45L13.04 2.45Q13.15 2.45 13.23 2.53Q13.32 2.61 13.32 2.73L13.32 2.73L13.32 10.23Q13.32 11.22 12.80 11.74Q12.29 12.25 11.30 12.25L11.30 12.25L9.73 12.25Q8.74 12.25 8.22 11.74Q7.71 11.22 7.71 10.23ZM14.71 12.02L14.71 12.02L14.71 2.67Q14.71 2.45 14.94 2.45L14.94 2.45L18.30 2.45Q19.29 2.45 19.81 2.96Q20.33 3.47 20.33 4.46L20.33 4.46L20.33 6.36Q20.33 6.74 20.08 7.01Q19.83 7.29 19.45 7.35L19.45 7.35L19.45 7.38Q19.83 7.44 20.08 7.71Q20.33 7.99 20.33 8.37L20.33 8.37L20.33 10.23Q20.33 11.22 19.81 11.74Q19.29 12.25 18.30 12.25L18.30 12.25L14.94 12.25Q14.83 12.25 14.77 12.19Q14.71 12.13 14.71 12.02ZM16.45 8.29L16.45 10.49L17.99 10.49Q18.55 10.49 18.55 9.93L18.55 9.93L18.55 8.85Q18.55 8.29 17.99 8.29L17.99 8.29L16.45 8.29ZM16.45 4.21L16.45 6.44L17.99 6.44Q18.27 6.44 18.41 6.30Q18.55 6.15 18.55 5.89L18.55 5.89L18.55 4.77Q18.55 4.21 17.99 4.21L17.99 4.21L16.45 4.21ZM21.72 12.02L21.72 12.02L21.72 2.67Q21.72 2.57 21.79 2.51Q21.85 2.45 21.95 2.45L21.95 2.45L25.31 2.45Q26.30 2.45 26.82 2.96Q27.33 3.47 27.33 4.46L27.33 4.46L27.33 7.28Q27.33 8.50 26.54 8.99L26.54 8.99L27.27 12.00Q27.33 12.25 27.08 12.25L27.08 12.25L25.70 12.25Q25.50 12.25 25.46 12.05L25.46 12.05L24.79 9.30L23.55 9.30L23.55 12.02Q23.55 12.13 23.49 12.19Q23.43 12.25 23.32 12.25L23.32 12.25L21.95 12.25Q21.85 12.25 21.79 12.19Q21.72 12.13 21.72 12.02ZM23.55 4.26L23.55 7.49L24.94 7.49Q25.50 7.49 25.50 6.93L25.50 6.93L25.50 4.82Q25.50 4.26 24.94 4.26L24.94 4.26L23.55 4.26ZM28.72 12.02L28.72 12.02L28.72 2.67Q28.72 2.57 28.78 2.51Q28.84 2.45 28.94 2.45L28.94 2.45L34.09 2.45Q34.32 2.45 34.32 2.67L34.32 2.67L34.32 4.07Q34.32 4.31 34.09 4.31L34.09 4.31L30.63 4.31L30.63 6.47L33.26 6.47Q33.49 6.47 33.49 6.71L33.49 6.71L33.49 8.09Q33.49 8.33 33.26 8.33L33.26 8.33L30.63 8.33L30.63 10.40L34.09 10.40Q34.22 10.40 34.27 10.45Q34.32 10.50 34.32 10.62L34.32 10.62L34.32 12.02Q34.32 12.25 34.09 12.25L34.09 12.25L28.94 12.25Q28.84 12.25 28.78 12.19Q28.72 12.13 28.72 12.02ZM35.70 2.67L35.70 12.02Q35.70 12.25 35.93 12.25L35.93 12.25L40.38 12.25Q40.61 12.25 40.61 12.02L40.61 12.02L40.61 10.62Q40.61 10.40 40.38 10.40L40.38 10.40L37.61 10.40L37.61 2.67Q37.61 2.45 37.39 2.45L37.39 2.45L35.93 2.45Q35.83 2.45 35.77 2.51Q35.70 2.57 35.70 2.67L35.70 2.67Z"></path></g><defs data-v-fde0c5aa=""></defs><g data-v-fde0c5aa="" id="78b05969-85bf-459e-99ef-29b8b9ecc4b0" stroke="none" fill="#3498db" transform="matrix(1.9163286685943604,0,0,1.9163286685943604,40,119.33874124776573)"><path d="M9.382 8.675h13.943v13.943L32 31.293V0H.707zM22.618 23.325H8.675V9.382L0 .707V32h31.293z"></path></g></svg>